<svg xmlns="http://www.w3.org/2000/svg" viewBox="0 0 89.33 48.36"><defs><style>.cls-1,.cls-2{fill:#333;}.cls-2{opacity:0.95;}</style></defs><title>Asset 1</title><g id="Layer_2" data-name="Layer 2"><g id="Layer_1-2" data-name="Layer 1"><path class="cls-1" d="M61.41,13a13.75,13.75,0,0,0-1.76,3,13.41,13.41,0,0,0-3.12-4,14.5,14.5,0,0,0-4.91-2.78,18,18,0,0,0-5.85-1,17.84,17.84,0,0,0-5.79,1,14.08,14.08,0,0,0-4.88,2.78S35.05,12,35,12L39.39,0H25.65L19.92,22.33h-.2L13.74,0H0L12.82,36.11H26.31l4.27-11.82a13.76,13.76,0,0,0,4.52,9A14.21,14.21,0,0,0,40,36.15a17.59,17.59,0,0,0,5.79,1,17.77,17.77,0,0,0,5.85-1,14.81,14.81,0,0,0,4.91-2.84,13.49,13.49,0,0,0,3.09-4A12.21,12.21,0,0,0,61.3,32a11.11,11.11,0,0,0,3.84,3,12.44,12.44,0,0,0,5.41,1.09,10.62,10.62,0,0,0,4.37-.8,12.28,12.28,0,0,0,2.89-1.94H78v1.06a4.51,4.51,0,0,1-.55,2.17,4.69,4.69,0,0,1-1.39,1.58,6.26,6.26,0,0,1-2,1,8.44,8.44,0,0,1-2.43.34,13.34,13.34,0,0,1-4.09-.69,13.71,13.71,0,0,1-4.09-2.17l-5.16,7.81A21.24,21.24,0,0,0,65,47.36a30.59,30.59,0,0,0,7.67,1,27.43,27.43,0,0,0,6.13-.69,14.65,14.65,0,0,0,5.39-2.41,12.19,12.19,0,0,0,3.77-4.62,16.59,16.59,0,0,0,1.39-7.3v-.89L77.84,20.79a4.35,4.35,0,0,1,.37,1.77A4.47,4.47,0,0,1,77,25.77a4.35,4.35,0,0,1-3.34,1.33,4.08,4.08,0,0,1-3.27-1.3,4.79,4.79,0,0,1-1.13-3.24,4.68,4.68,0,0,1,1.13-3.12,4,4,0,0,1,3.27-1.33,5.07,5.07,0,0,1,2,.38L66.42,9.2a12.42,12.42,0,0,0-1.18.52A11.78,11.78,0,0,0,61.41,13ZM49,25.83a4.45,4.45,0,0,1-6.33,0,4.58,4.58,0,0,1-1.23-3.22,4.52,4.52,0,0,1,1.2-3.12,4.06,4.06,0,0,1,3.14-1.33A4.23,4.23,0,0,1,49,19.49a4.43,4.43,0,0,1,1.25,3.12A4.58,4.58,0,0,1,49,25.83Z"/><line class="cls-2" x1="89.33" y1="31.9" x2="89.33" y2="32.45"/><path class="cls-2" d="M66.42,9.2l.16-.06"/></g></g></svg>